<mxfile host="app.diagrams.net" modified="2023-12-05T21:47:19.096Z" agent="Mozilla/5.0 (Windows NT 10.0; Win64; x64) AppleWebKit/537.36 (KHTML, like Gecko) Chrome/119.0.0.0 Safari/537.36 Edg/119.0.0.0" etag="4-qEryM2Xh3-OqF8Yc19" version="22.1.5" type="device">
  <diagram id="6a731a19-8d31-9384-78a2-239565b7b9f0" name="Page-1">
    <mxGraphModel dx="1431" dy="776" grid="1" gridSize="10" guides="1" tooltips="1" connect="1" arrows="1" fold="1" page="1" pageScale="1" pageWidth="1169" pageHeight="827" background="none" math="0" shadow="0">
      <root>
        <mxCell id="0" />
        <mxCell id="1" parent="0" />
        <mxCell id="2" value="start" style="shape=mxgraph.flowchart.terminator;strokeWidth=2;gradientColor=none;gradientDirection=north;fontStyle=0;html=1;" parent="1" vertex="1">
          <mxGeometry x="260" y="60" width="120" height="30" as="geometry" />
        </mxCell>
        <mxCell id="7" style="fontStyle=1;strokeColor=#003366;strokeWidth=1;html=1;" parent="1" source="2" edge="1">
          <mxGeometry relative="1" as="geometry">
            <mxPoint x="320" y="130" as="targetPoint" />
          </mxGeometry>
        </mxCell>
        <mxCell id="8" style="fontStyle=1;strokeColor=#003366;strokeWidth=1;html=1;" parent="1" edge="1">
          <mxGeometry relative="1" as="geometry">
            <mxPoint x="320" y="210" as="sourcePoint" />
            <mxPoint x="320" y="250" as="targetPoint" />
          </mxGeometry>
        </mxCell>
        <mxCell id="9" style="entryX=0.5;entryY=0;entryPerimeter=0;fontStyle=1;strokeColor=#003366;strokeWidth=1;html=1;" parent="1" edge="1">
          <mxGeometry relative="1" as="geometry">
            <mxPoint x="318.95" y="310" as="sourcePoint" />
            <mxPoint x="318.95" y="370" as="targetPoint" />
          </mxGeometry>
        </mxCell>
        <mxCell id="12" value="" style="edgeStyle=elbowEdgeStyle;elbow=horizontal;fontColor=#001933;fontStyle=1;strokeColor=#003366;strokeWidth=1;html=1;" parent="1" edge="1">
          <mxGeometry width="100" height="100" as="geometry">
            <mxPoint x="319.7368421052631" y="447" as="sourcePoint" />
            <mxPoint x="319.7368421052631" y="510" as="targetPoint" />
          </mxGeometry>
        </mxCell>
        <mxCell id="18" value="Ask player to make a move/&lt;br&gt;Choose number" style="shape=mxgraph.flowchart.predefined_process;strokeWidth=2;gradientColor=none;gradientDirection=north;fontStyle=0;html=1;" parent="1" vertex="1">
          <mxGeometry x="240.5" y="620" width="219.5" height="90" as="geometry" />
        </mxCell>
        <mxCell id="21" value="" style="edgeStyle=elbowEdgeStyle;elbow=horizontal;entryX=0.5;entryY=0.195;entryPerimeter=0;fontStyle=1;strokeColor=#003366;strokeWidth=1;html=1;" parent="1" edge="1">
          <mxGeometry width="100" height="100" as="geometry">
            <mxPoint x="320.78947368421063" y="720" as="sourcePoint" />
            <mxPoint x="320.9999999999998" y="795.5999999999999" as="targetPoint" />
          </mxGeometry>
        </mxCell>
        <mxCell id="23" value="" style="edgeStyle=elbowEdgeStyle;elbow=horizontal;exitX=0.5;exitY=1;exitPerimeter=0;fontStyle=1;strokeColor=#003366;strokeWidth=1;html=1;" parent="1" edge="1">
          <mxGeometry width="100" height="100" as="geometry">
            <mxPoint x="324.6799999999998" y="560" as="sourcePoint" />
            <mxPoint x="324.46947368421064" y="620" as="targetPoint" />
          </mxGeometry>
        </mxCell>
        <mxCell id="24" value="check if move is valid" style="shape=mxgraph.flowchart.decision;strokeWidth=2;gradientColor=none;gradientDirection=north;fontStyle=0;html=1;" parent="1" vertex="1">
          <mxGeometry x="239" y="800" width="160.5" height="78.5" as="geometry" />
        </mxCell>
        <mxCell id="40" value="end" style="shape=mxgraph.flowchart.terminator;strokeWidth=2;gradientColor=none;gradientDirection=north;fontStyle=0;html=1;" parent="1" vertex="1">
          <mxGeometry x="261" y="1600" width="120" height="30" as="geometry" />
        </mxCell>
        <mxCell id="43" value="" style="edgeStyle=elbowEdgeStyle;elbow=vertical;exitX=0.5;exitY=1;exitPerimeter=0;entryX=0.5;entryY=0;entryPerimeter=0;fontStyle=1;strokeColor=#003366;strokeWidth=1;html=1;" parent="1" edge="1">
          <mxGeometry width="100" height="100" as="geometry">
            <mxPoint x="318.47" y="1500" as="sourcePoint" />
            <mxPoint x="318.47" y="1600" as="targetPoint" />
          </mxGeometry>
        </mxCell>
        <mxCell id="mfh2uleJgKBUzQZNGThA-55" value="" style="shape=process;whiteSpace=wrap;html=1;backgroundOutline=1;" vertex="1" parent="1">
          <mxGeometry x="265" y="140" width="120" height="60" as="geometry" />
        </mxCell>
        <mxCell id="mfh2uleJgKBUzQZNGThA-56" value="Get player names" style="text;html=1;strokeColor=none;fillColor=none;align=center;verticalAlign=middle;whiteSpace=wrap;rounded=0;" vertex="1" parent="1">
          <mxGeometry x="291" y="150" width="60" height="30" as="geometry" />
        </mxCell>
        <mxCell id="mfh2uleJgKBUzQZNGThA-58" value="" style="shape=process;whiteSpace=wrap;html=1;backgroundOutline=1;" vertex="1" parent="1">
          <mxGeometry x="261" y="250" width="120" height="60" as="geometry" />
        </mxCell>
        <mxCell id="mfh2uleJgKBUzQZNGThA-59" value="Initialize 3X3 board" style="text;html=1;strokeColor=none;fillColor=none;align=center;verticalAlign=middle;whiteSpace=wrap;rounded=0;" vertex="1" parent="1">
          <mxGeometry x="290" y="265" width="60" height="30" as="geometry" />
        </mxCell>
        <mxCell id="mfh2uleJgKBUzQZNGThA-60" value="" style="verticalLabelPosition=bottom;verticalAlign=top;html=1;shape=process;whiteSpace=wrap;rounded=1;size=0.14;arcSize=6;" vertex="1" parent="1">
          <mxGeometry x="269" y="373" width="100" height="60" as="geometry" />
        </mxCell>
        <mxCell id="mfh2uleJgKBUzQZNGThA-61" value="Display game board" style="text;html=1;strokeColor=none;fillColor=none;align=center;verticalAlign=middle;whiteSpace=wrap;rounded=0;" vertex="1" parent="1">
          <mxGeometry x="289" y="390" width="60" height="30" as="geometry" />
        </mxCell>
        <mxCell id="mfh2uleJgKBUzQZNGThA-62" value="" style="shape=process;whiteSpace=wrap;html=1;backgroundOutline=1;" vertex="1" parent="1">
          <mxGeometry x="265" y="510" width="120" height="60" as="geometry" />
        </mxCell>
        <mxCell id="mfh2uleJgKBUzQZNGThA-63" value="Set Player turn" style="text;html=1;strokeColor=none;fillColor=none;align=center;verticalAlign=middle;whiteSpace=wrap;rounded=0;" vertex="1" parent="1">
          <mxGeometry x="289" y="525" width="60" height="30" as="geometry" />
        </mxCell>
        <mxCell id="mfh2uleJgKBUzQZNGThA-65" value="" style="endArrow=classic;html=1;rounded=0;" edge="1" parent="1">
          <mxGeometry width="50" height="50" relative="1" as="geometry">
            <mxPoint x="400" y="840" as="sourcePoint" />
            <mxPoint x="540" y="840" as="targetPoint" />
          </mxGeometry>
        </mxCell>
        <mxCell id="mfh2uleJgKBUzQZNGThA-66" value="" style="endArrow=classic;html=1;rounded=0;" edge="1" parent="1">
          <mxGeometry width="50" height="50" relative="1" as="geometry">
            <mxPoint x="540" y="838.72" as="sourcePoint" />
            <mxPoint x="540" y="640" as="targetPoint" />
          </mxGeometry>
        </mxCell>
        <mxCell id="mfh2uleJgKBUzQZNGThA-67" value="" style="endArrow=classic;html=1;rounded=0;" edge="1" parent="1">
          <mxGeometry width="50" height="50" relative="1" as="geometry">
            <mxPoint x="540" y="640" as="sourcePoint" />
            <mxPoint x="460" y="640" as="targetPoint" />
          </mxGeometry>
        </mxCell>
        <mxCell id="mfh2uleJgKBUzQZNGThA-68" value="No" style="text;html=1;strokeColor=none;fillColor=none;align=center;verticalAlign=middle;whiteSpace=wrap;rounded=0;" vertex="1" parent="1">
          <mxGeometry x="470" y="610" width="60" height="30" as="geometry" />
        </mxCell>
        <mxCell id="mfh2uleJgKBUzQZNGThA-69" value="" style="shape=process;whiteSpace=wrap;html=1;backgroundOutline=1;" vertex="1" parent="1">
          <mxGeometry x="261" y="950" width="120" height="60" as="geometry" />
        </mxCell>
        <mxCell id="mfh2uleJgKBUzQZNGThA-70" value="" style="endArrow=classic;html=1;rounded=0;" edge="1" parent="1">
          <mxGeometry width="50" height="50" relative="1" as="geometry">
            <mxPoint x="321" y="878.5" as="sourcePoint" />
            <mxPoint x="321" y="948.5" as="targetPoint" />
          </mxGeometry>
        </mxCell>
        <mxCell id="mfh2uleJgKBUzQZNGThA-71" value="Update Board" style="text;html=1;strokeColor=none;fillColor=none;align=center;verticalAlign=middle;whiteSpace=wrap;rounded=0;" vertex="1" parent="1">
          <mxGeometry x="289" y="965" width="60" height="30" as="geometry" />
        </mxCell>
        <mxCell id="mfh2uleJgKBUzQZNGThA-72" value="Yes" style="text;html=1;strokeColor=none;fillColor=none;align=center;verticalAlign=middle;whiteSpace=wrap;rounded=0;" vertex="1" parent="1">
          <mxGeometry x="340" y="890" width="60" height="30" as="geometry" />
        </mxCell>
        <mxCell id="mfh2uleJgKBUzQZNGThA-73" value="" style="rhombus;whiteSpace=wrap;html=1;" vertex="1" parent="1">
          <mxGeometry x="281" y="1070" width="80" height="80" as="geometry" />
        </mxCell>
        <mxCell id="mfh2uleJgKBUzQZNGThA-74" value="" style="endArrow=classic;html=1;rounded=0;" edge="1" parent="1">
          <mxGeometry width="50" height="50" relative="1" as="geometry">
            <mxPoint x="318.47" y="1020" as="sourcePoint" />
            <mxPoint x="318.47" y="1070" as="targetPoint" />
          </mxGeometry>
        </mxCell>
        <mxCell id="mfh2uleJgKBUzQZNGThA-75" value="current move == win" style="text;html=1;strokeColor=none;fillColor=none;align=center;verticalAlign=middle;whiteSpace=wrap;rounded=0;" vertex="1" parent="1">
          <mxGeometry x="289" y="1095" width="60" height="30" as="geometry" />
        </mxCell>
        <mxCell id="mfh2uleJgKBUzQZNGThA-76" value="" style="rhombus;whiteSpace=wrap;html=1;" vertex="1" parent="1">
          <mxGeometry x="279" y="1190" width="80" height="80" as="geometry" />
        </mxCell>
        <mxCell id="mfh2uleJgKBUzQZNGThA-77" value="current move == tie" style="text;html=1;strokeColor=none;fillColor=none;align=center;verticalAlign=middle;whiteSpace=wrap;rounded=0;" vertex="1" parent="1">
          <mxGeometry x="289" y="1215" width="60" height="30" as="geometry" />
        </mxCell>
        <mxCell id="mfh2uleJgKBUzQZNGThA-78" value="" style="shape=process;whiteSpace=wrap;html=1;backgroundOutline=1;" vertex="1" parent="1">
          <mxGeometry x="265" y="1320" width="120" height="60" as="geometry" />
        </mxCell>
        <mxCell id="mfh2uleJgKBUzQZNGThA-79" value="Display winner" style="text;html=1;strokeColor=none;fillColor=none;align=center;verticalAlign=middle;whiteSpace=wrap;rounded=0;" vertex="1" parent="1">
          <mxGeometry x="289" y="1335" width="60" height="30" as="geometry" />
        </mxCell>
        <mxCell id="mfh2uleJgKBUzQZNGThA-80" value="Display tie" style="shape=process;whiteSpace=wrap;html=1;backgroundOutline=1;" vertex="1" parent="1">
          <mxGeometry x="261" y="1440" width="120" height="60" as="geometry" />
        </mxCell>
        <mxCell id="mfh2uleJgKBUzQZNGThA-81" value="" style="endArrow=classic;html=1;rounded=0;" edge="1" parent="1">
          <mxGeometry width="50" height="50" relative="1" as="geometry">
            <mxPoint x="360" y="1110" as="sourcePoint" />
            <mxPoint x="470" y="1110" as="targetPoint" />
          </mxGeometry>
        </mxCell>
        <mxCell id="mfh2uleJgKBUzQZNGThA-82" value="" style="endArrow=classic;html=1;rounded=0;" edge="1" parent="1">
          <mxGeometry width="50" height="50" relative="1" as="geometry">
            <mxPoint x="470" y="1110" as="sourcePoint" />
            <mxPoint x="470" y="1360" as="targetPoint" />
          </mxGeometry>
        </mxCell>
        <mxCell id="mfh2uleJgKBUzQZNGThA-83" value="" style="endArrow=classic;html=1;rounded=0;" edge="1" parent="1">
          <mxGeometry width="50" height="50" relative="1" as="geometry">
            <mxPoint x="475" y="1360" as="sourcePoint" />
            <mxPoint x="385" y="1360" as="targetPoint" />
          </mxGeometry>
        </mxCell>
        <mxCell id="mfh2uleJgKBUzQZNGThA-84" value="yes" style="text;html=1;strokeColor=none;fillColor=none;align=center;verticalAlign=middle;whiteSpace=wrap;rounded=0;" vertex="1" parent="1">
          <mxGeometry x="380" y="1080" width="60" height="30" as="geometry" />
        </mxCell>
        <mxCell id="mfh2uleJgKBUzQZNGThA-85" value="" style="endArrow=classic;html=1;rounded=0;" edge="1" parent="1">
          <mxGeometry width="50" height="50" relative="1" as="geometry">
            <mxPoint x="320.28999999999996" y="1150" as="sourcePoint" />
            <mxPoint x="320.28999999999996" y="1210" as="targetPoint" />
          </mxGeometry>
        </mxCell>
        <mxCell id="mfh2uleJgKBUzQZNGThA-86" value="No" style="text;html=1;strokeColor=none;fillColor=none;align=center;verticalAlign=middle;whiteSpace=wrap;rounded=0;" vertex="1" parent="1">
          <mxGeometry x="110" y="1110" width="60" height="30" as="geometry" />
        </mxCell>
        <mxCell id="mfh2uleJgKBUzQZNGThA-87" value="" style="endArrow=classic;html=1;rounded=0;exitX=0;exitY=0.5;exitDx=0;exitDy=0;" edge="1" parent="1" source="mfh2uleJgKBUzQZNGThA-76">
          <mxGeometry width="50" height="50" relative="1" as="geometry">
            <mxPoint x="120" y="1240" as="sourcePoint" />
            <mxPoint x="170" y="1230" as="targetPoint" />
          </mxGeometry>
        </mxCell>
        <mxCell id="mfh2uleJgKBUzQZNGThA-88" value="" style="endArrow=classic;html=1;rounded=0;" edge="1" parent="1">
          <mxGeometry width="50" height="50" relative="1" as="geometry">
            <mxPoint x="170" y="1230" as="sourcePoint" />
            <mxPoint x="170" y="1480" as="targetPoint" />
          </mxGeometry>
        </mxCell>
        <mxCell id="mfh2uleJgKBUzQZNGThA-89" value="" style="endArrow=classic;html=1;rounded=0;" edge="1" parent="1">
          <mxGeometry width="50" height="50" relative="1" as="geometry">
            <mxPoint x="170" y="1480" as="sourcePoint" />
            <mxPoint x="250" y="1480" as="targetPoint" />
          </mxGeometry>
        </mxCell>
        <mxCell id="mfh2uleJgKBUzQZNGThA-90" value="Yes" style="text;html=1;strokeColor=none;fillColor=none;align=center;verticalAlign=middle;whiteSpace=wrap;rounded=0;" vertex="1" parent="1">
          <mxGeometry x="110" y="1380" width="60" height="30" as="geometry" />
        </mxCell>
        <mxCell id="mfh2uleJgKBUzQZNGThA-95" value="" style="endArrow=classic;html=1;rounded=0;exitX=0.012;exitY=0.375;exitDx=0;exitDy=0;exitPerimeter=0;" edge="1" parent="1" source="mfh2uleJgKBUzQZNGThA-76">
          <mxGeometry width="50" height="50" relative="1" as="geometry">
            <mxPoint x="120" y="1170" as="sourcePoint" />
            <mxPoint x="170" y="1120" as="targetPoint" />
          </mxGeometry>
        </mxCell>
        <mxCell id="mfh2uleJgKBUzQZNGThA-96" value="" style="endArrow=classic;html=1;rounded=0;" edge="1" parent="1">
          <mxGeometry width="50" height="50" relative="1" as="geometry">
            <mxPoint x="170" y="1120" as="sourcePoint" />
            <mxPoint x="170" y="530" as="targetPoint" />
          </mxGeometry>
        </mxCell>
        <mxCell id="mfh2uleJgKBUzQZNGThA-97" value="" style="endArrow=classic;html=1;rounded=0;entryX=0;entryY=0.25;entryDx=0;entryDy=0;" edge="1" parent="1" target="mfh2uleJgKBUzQZNGThA-62">
          <mxGeometry width="50" height="50" relative="1" as="geometry">
            <mxPoint x="170" y="530" as="sourcePoint" />
            <mxPoint x="220" y="480" as="targetPoint" />
          </mxGeometry>
        </mxCell>
        <mxCell id="mfh2uleJgKBUzQZNGThA-98" value="No" style="text;html=1;strokeColor=none;fillColor=none;align=center;verticalAlign=middle;whiteSpace=wrap;rounded=0;" vertex="1" parent="1">
          <mxGeometry x="309" y="1140" width="60" height="30" as="geometry" />
        </mxCell>
        <mxCell id="mfh2uleJgKBUzQZNGThA-99" value="" style="endArrow=classic;html=1;rounded=0;" edge="1" parent="1">
          <mxGeometry width="50" height="50" relative="1" as="geometry">
            <mxPoint x="320.29" y="1380" as="sourcePoint" />
            <mxPoint x="320.29" y="1440" as="targetPoint" />
          </mxGeometry>
        </mxCell>
        <mxCell id="mfh2uleJgKBUzQZNGThA-100" value="" style="endArrow=classic;html=1;rounded=0;" edge="1" parent="1">
          <mxGeometry width="50" height="50" relative="1" as="geometry">
            <mxPoint x="318.29" y="1270" as="sourcePoint" />
            <mxPoint x="318.29" y="1320" as="targetPoint" />
          </mxGeometry>
        </mxCell>
      </root>
    </mxGraphModel>
  </diagram>
</mxfile>
